<?xml version="1.0" encoding="UTF-8" standalone="no"?>
<!DOCTYPE svg PUBLIC "-//W3C//DTD SVG 1.1//EN"
 "http://www.w3.org/Graphics/SVG/1.1/DTD/svg11.dtd">
<!-- Generated by graphviz version 9.0.0 (0)
 -->
<!-- Title: ProcessingPipeline Pages: 1 -->
<svg width="239pt" height="432pt"
 viewBox="0.00 0.00 238.83 432.00" xmlns="http://www.w3.org/2000/svg" xmlns:xlink="http://www.w3.org/1999/xlink">
<g id="graph0" class="graph" transform="scale(0.77908 0.77908) rotate(0) translate(4 550.5)">
<title>ProcessingPipeline</title>
<polygon fill="white" stroke="none" points="-4,4 -4,-550.5 302.56,-550.5 302.56,4 -4,4"/>
<!-- tokens -->
<g id="node1" class="node">
<title>tokens</title>
<polygon fill="#e5e5e5" stroke="black" points="247.84,-459.5 136.04,-459.5 107.28,-423.5 219.08,-423.5 247.84,-459.5"/>
<text text-anchor="middle" x="177.56" y="-435.7" font-family="Monospace" font-size="14.00">[Token]</text>
</g>
<!-- refine -->
<g id="node4" class="node">
<title>refine</title>
<polygon fill="#e5e5e5" stroke="black" points="145.06,-363.25 90.06,-363.25 90.06,-327.25 145.06,-327.25 145.06,-363.25"/>
<text text-anchor="middle" x="117.56" y="-339.45" font-family="Sans-Serif" font-size="14.00">Refine</text>
</g>
<!-- tokens&#45;&gt;refine -->
<g id="edge2" class="edge">
<title>tokens&#45;&gt;refine</title>
<path fill="none" stroke="black" d="M126.17,-423.4C126.17,-423.4 126.17,-375.11 126.17,-375.11"/>
<polygon fill="black" stroke="black" points="129.67,-375.11 126.17,-365.11 122.67,-375.11 129.67,-375.11"/>
</g>
<!-- args -->
<g id="node2" class="node">
<title>args</title>
<polygon fill="#e5e5e5" stroke="black" points="211.42,-267 62.1,-267 23.69,-231 173.01,-231 211.42,-267"/>
<text text-anchor="middle" x="117.56" y="-243.2" font-family="Monospace" font-size="14.00">[Argument]</text>
</g>
<!-- exec -->
<g id="node5" class="node">
<title>exec</title>
<polygon fill="#e5e5e5" stroke="black" points="86.93,-151.5 22.18,-151.5 22.18,-115.5 86.93,-115.5 86.93,-151.5"/>
<text text-anchor="middle" x="54.56" y="-127.7" font-family="Sans-Serif" font-size="14.00">Execute</text>
</g>
<!-- args&#45;&gt;exec -->
<g id="edge5" class="edge">
<title>args&#45;&gt;exec</title>
<path fill="none" stroke="black" d="M55.31,-230.7C55.31,-230.7 55.31,-163.23 55.31,-163.23"/>
<polygon fill="black" stroke="black" points="58.81,-163.23 55.31,-153.23 51.81,-163.23 58.81,-163.23"/>
</g>
<!-- in -->
<g id="node3" class="node">
<title>in</title>
<polygon fill="#e5e5e5" stroke="black" points="244.98,-546.5 137.73,-546.5 110.14,-510.5 217.39,-510.5 244.98,-546.5"/>
<text text-anchor="middle" x="177.56" y="-522.7" font-family="Sans-Serif" font-size="14.00">CLI Input</text>
</g>
<!-- in&#45;&gt;tokens -->
<g id="edge1" class="edge">
<title>in&#45;&gt;tokens</title>
<path fill="none" stroke="black" d="M177.56,-510.05C177.56,-510.05 177.56,-471.44 177.56,-471.44"/>
<polygon fill="black" stroke="black" points="181.06,-471.44 177.56,-461.44 174.06,-471.44 181.06,-471.44"/>
<text text-anchor="middle" x="211.68" y="-479.2" font-family="Sans-Serif" font-size="14.00"> &#160;Tokenize &#160;</text>
</g>
<!-- refine&#45;&gt;args -->
<g id="edge4" class="edge">
<title>refine&#45;&gt;args</title>
<path fill="none" stroke="black" d="M117.56,-327.15C117.56,-327.15 117.56,-278.86 117.56,-278.86"/>
<polygon fill="black" stroke="black" points="121.06,-278.86 117.56,-268.86 114.06,-278.86 121.06,-278.86"/>
</g>
<!-- clispec -->
<g id="node7" class="node">
<title>clispec</title>
<path fill="#e5e5e5" stroke="black" d="M298.56,-379C298.56,-383.14 272.11,-386.5 239.56,-386.5 207,-386.5 180.56,-383.14 180.56,-379 180.56,-379 180.56,-311.5 180.56,-311.5 180.56,-307.36 207,-304 239.56,-304 272.11,-304 298.56,-307.36 298.56,-311.5 298.56,-311.5 298.56,-379 298.56,-379"/>
<path fill="none" stroke="black" d="M298.56,-379C298.56,-374.86 272.11,-371.5 239.56,-371.5 207,-371.5 180.56,-374.86 180.56,-379"/>
<text text-anchor="start" x="211.81" y="-344.95" font-family="Sans-Serif" font-size="14.00">CLI Spec</text>
<text text-anchor="start" x="188.56" y="-320.75" font-family="Sans-Serif" font-size="10.00"> &#160;Provided by the user &#160;</text>
</g>
<!-- refine&#45;&gt;clispec -->
<!-- out -->
<g id="node6" class="node">
<title>out</title>
<polygon fill="#e5e5e5" stroke="black" points="109.11,-36 22.33,-36 0,0 86.79,0 109.11,-36"/>
<text text-anchor="middle" x="54.56" y="-12.2" font-family="Sans-Serif" font-size="14.00">Output</text>
</g>
<!-- exec&#45;&gt;out -->
<g id="edge7" class="edge">
<title>exec&#45;&gt;out</title>
<path fill="none" stroke="black" d="M54.56,-115.2C54.56,-115.2 54.56,-47.73 54.56,-47.73"/>
<polygon fill="black" stroke="black" points="58.06,-47.73 54.56,-37.73 51.06,-47.73 58.06,-47.73"/>
</g>
<!-- mapping -->
<g id="node8" class="node">
<title>mapping</title>
<path fill="#e5e5e5" stroke="black" d="M240.56,-183C240.56,-189.07 214.11,-194 181.56,-194 149,-194 122.56,-189.07 122.56,-183 122.56,-183 122.56,-84 122.56,-84 122.56,-77.93 149,-73 181.56,-73 214.11,-73 240.56,-77.93 240.56,-84 240.56,-84 240.56,-183 240.56,-183"/>
<path fill="none" stroke="black" d="M240.56,-183C240.56,-176.93 214.11,-172 181.56,-172 149,-172 122.56,-176.93 122.56,-183"/>
<text text-anchor="start" x="151.93" y="-147.2" font-family="Sans-Serif" font-size="14.00">Argument</text>
<text text-anchor="start" x="177.06" y="-133.2" font-family="Sans-Serif" font-size="14.00">↓</text>
<text text-anchor="start" x="155.68" y="-119.2" font-family="Sans-Serif" font-size="14.00">Function</text>
<text text-anchor="start" x="130.56" y="-95" font-family="Sans-Serif" font-size="10.00"> &#160;Provided by the user &#160;</text>
</g>
<!-- exec&#45;&gt;mapping -->
<!-- clispec&#45;&gt;tokens -->
<!-- clispec&#45;&gt;refine -->
<g id="edge3" class="edge">
<title>clispec&#45;&gt;refine</title>
<path fill="none" stroke="black" d="M180.34,-339C180.34,-339 156.76,-339 156.76,-339"/>
<polygon fill="black" stroke="black" points="156.76,-335.5 146.76,-339 156.76,-342.5 156.76,-335.5"/>
</g>
<!-- mapping&#45;&gt;args -->
<!-- mapping&#45;&gt;exec -->
<g id="edge6" class="edge">
<title>mapping&#45;&gt;exec</title>
<path fill="none" stroke="black" d="M122.15,-127C122.15,-127 98.78,-127 98.78,-127"/>
<polygon fill="black" stroke="black" points="98.78,-123.5 88.78,-127 98.78,-130.5 98.78,-123.5"/>
</g>
</g>
</svg>
